<svg xmlns="http://www.w3.org/2000/svg" viewBox="0 0 1326 548" width="1326" height="548" style="">
	<style>
		tspan { white-space:pre }
		.shp0 { fill: none;stroke: #ffffff;stroke-width: 4.4 } 
	</style>
	<path id="Shape 2" fill-rule="evenodd" class="shp0 ayGqdnWP_0" d="M74 -12.12C74 15.99 120.22 67.98 113 96.88C109.06 112.63 79.33 103.08 92 87.87C95.15 84.1 98.4 79.88 104 79.88C107.53 79.88 114.57 82.11 118 82.87C140.17 87.8 114.74 113.4 118 106.88C129.26 84.36 172.94 72.38 195 61.88C222.59 48.74 249.47 40.07 278 29.88C291.15 25.18 304.42 17.25 319 18.87C335.42 20.7 371.03 43.6 388 50.88C398.44 55.35 432.15 62.03 440 69.88C441.63 71.5 438.16 75.41 437 75.88C428.81 79.15 419.34 77.54 411 75.88C380.45 69.76 352.9 56.35 323 48.87C289.23 40.43 216.96 86.14 184 99.88C175.31 103.5 142.82 109.23 139 116.88C133.03 128.81 132.65 146.65 131 159.88C130.59 163.18 127.67 169.88 131 169.88C134.56 169.88 161.25 142.13 165 138.88C185.52 121.09 211.23 104.17 238 97.87C271.51 89.99 308.37 99.02 340 110.88C354.49 116.31 367.52 124.29 383 126.88C397.6 129.31 410.23 122.87 424 122.87C425.8 122.87 420.65 124.17 419 124.88C414.35 126.87 409.42 128.3 405 130.88C395.07 136.67 386.6 143.77 377 149.88C337.36 175.1 324.12 178.1 277 180.88C250.54 182.43 202.45 181.31 180 166.88C158.15 152.83 145.57 128.36 122 115.88C105.78 107.29 89.51 102.83 84 124.88C78.63 146.34 85.09 170.95 83 192.87C80.32 221.02 76.29 254.39 66 280.88C60.26 295.66 36 323.12 36 337.87C36 343.24 41.49 350.48 44 354.88C47.94 361.78 82.12 395.94 90 399.88C91.14 400.45 118.4 380.3 131 381.88C140.96 383.12 188.79 390.81 185 371.88C184.47 369.21 182.14 364.71 180 362.87C154.62 341.12 164.34 393.95 165 403.88C165.3 408.45 165 413.26 165 417.88C165 418.54 165.67 419.88 165 419.88C161.18 419.88 150.04 404.61 136 409.88C122.25 415.03 123.53 424.84 116 434.88C115.55 435.47 115.75 436.88 115 436.88C105.12 436.88 91.28 423.22 73 426.88C61.84 429.11 44.73 463.53 34 471.88C32.89 472.74 18 481.7 18 480.87C18 476 46.26 478.3 50 478.88C83.33 484 113.51 508.34 149 502.88C176.24 498.68 196.26 475.15 203 449.88C203.55 447.82 209.06 426.41 206 424.88C205.33 424.54 204.67 425.54 204 425.87C196.47 429.64 191.54 436.55 183 438.88C168.99 442.7 151.99 431.88 143 434.88C136.88 436.92 115.24 459.88 104 465.87C95.68 470.31 87.23 471.72 78 472.88C76.68 473.04 74 472.88 74 472.88C74 472.88 88.56 473.82 89 473.88C100.83 475.45 111.1 475.33 122 469.88C146.73 457.51 195.64 413.42 224 422.88C234.17 426.26 242.32 441.58 249 448.88C260.27 461.17 270.36 474.11 281 486.88C284.63 491.24 289.35 494.62 294 497.88C296.35 499.52 303.03 500.85 301 502.88C300.53 503.35 299.67 502.88 299 502.88C287.97 502.88 279.16 501.75 268 503.88C260.75 505.26 253.69 507.75 247 510.87C245.37 511.63 241.56 514.62 242 512.88C245.36 499.45 267.61 475.63 275 462.88C299.64 420.31 309.67 380.92 288 334.88C282.97 324.18 276.79 314.73 269 305.88C265.26 301.63 261.67 297.06 257 293.88C223.13 270.78 214.47 335.49 250 333.88C254.77 333.66 259.52 332.53 264 330.88C317.32 311.13 343.44 256.55 410 259.88C426.6 260.71 451.01 263.38 465 274C503.37 303.11 548.1 407.26 519 451.88C509.1 467.05 487.8 475.82 470 470.87C469.4 470.71 456.57 463.3 454 464.88C445.04 470.39 442.29 475.59 445 485.87C451.01 508.71 501.08 484.77 507 497.88C512.55 510.16 506.31 526.17 513 537.88C516.42 543.85 524.31 534.25 536 527.88C543.34 523.87 550.85 519.75 559 517.88C561.6 517.28 567.84 520.4 567 517.88C563.2 506.47 551.16 499.67 542 491.88C516.43 470.11 489.45 450.07 465 426.88C457.48 419.74 450.46 412.08 443 404.88C439.95 401.93 431 398.87 434 395.87C438.47 391.4 445.89 400.26 452 401.88C475.05 407.98 498.58 414.36 522 418.88C545.43 423.4 560.98 426.09 585 423.88C608.56 421.7 639.1 408.63 663 418.88C688.84 429.95 684.68 487.12 681 505.87C679.96 511.16 677.52 516.12 675 520.87C674.44 521.94 673 523.54 672 522.88C666 518.87 670.43 509.4 673 505.87C681.84 493.71 700.47 485.01 715 482.88C737.19 479.61 758.8 488.47 780 492.88C810.77 499.26 845.63 508.03 877 508.88C914.41 509.89 954.8 499.74 988 482.88C1028.94 462.08 1066.6 423.93 1114 417.88C1149.9 413.29 1189.08 428.99 1211 457.88C1217.6 466.58 1233.79 492.29 1220 503.88C1190.53 528.63 1129.78 497.29 1144 456.88C1148.12 445.17 1155.64 434.86 1163 424.88C1169.72 415.76 1178.48 408.34 1186 399.88C1218.28 363.56 1289.71 276.93 1236 228.88C1213.53 208.77 1206.56 259.57 1227 263.88C1246.78 268.04 1263.56 237.81 1275 227.87C1280.79 222.84 1287.29 218.6 1294 214.88C1296.91 213.26 1304 211.54 1304 214.88C1304 220.3 1292.52 214.88 1288 211.88C1279.75 206.38 1272.43 199.41 1266 191.88C1261.1 186.13 1238.66 141.43 1234 139.88C1230.84 138.82 1230.1 145.29 1228 147.87C1224.1 152.68 1206.96 167.93 1204 169.88C1195.33 175.55 1188.57 176.28 1179 177.87C1176.35 178.32 1169.1 176.97 1171 178.88C1185.64 193.51 1187.47 200.4 1182 222.87C1180.8 227.81 1178.39 232.4 1176 236.88C1175.65 237.53 1174.33 238.54 1174 237.87C1171.6 233.07 1179.02 228.35 1182 223.88C1186.92 216.49 1191.58 208.9 1197 201.88C1206.26 189.88 1216.34 178.54 1226 166.88C1248.16 140.12 1272.73 115.32 1294 87.87C1303.74 75.3 1319.14 59.29 1326 44.88C1327 42.77 1324.62 39.76 1326 37.88C1328.67 34.23 1337.27 29.61 1341 25.88"></path>
<style data-made-with="vivus-instant">.ayGqdnWP_0{stroke-dasharray:6371 6373;stroke-dashoffset:6372;animation:ayGqdnWP_draw_0 20400ms linear 0ms infinite,ayGqdnWP_fade 20400ms linear 0ms infinite;}@keyframes ayGqdnWP_draw{100%{stroke-dashoffset:0;}}@keyframes ayGqdnWP_fade{0%{stroke-opacity:1;}97.05882352941177%{stroke-opacity:1;}100%{stroke-opacity:0;}}@keyframes ayGqdnWP_draw_0{3.9215686274509802%{stroke-dashoffset: 6372}59.477124183006524%{ stroke-dashoffset: 0;}100%{ stroke-dashoffset: 0;}}</style></svg>